{
  "accessors": [
    {
      "bufferView": 1,
      "componentType": 5126,
      "count": 1316,
      "max": [
        1.1380800008773804,
        0.05522000044584274,
        11.129599571228027
      ],
      "min": [
        -1.1355799436569214,
        -0.046160001307725906,
        6.602099895477295
      ],
      "type": "VEC3"
    },
    {
      "bufferView": 1,
      "byteOffset": 15792,
      "componentType": 5126,
      "count": 1316,
      "max": [
        0.994003176689148,
        0.9999856352806091,
        0.9999999403953552
      ],
      "min": [
        -0.994003176689148,
        -0.9999856352806091,
        -0.9999999403953552
      ],
      "type": "VEC3"
    },
    {
      "bufferView": 0,
      "componentType": 5125,
      "count": 7548,
      "type": "SCALAR"
    },
    {
      "bufferView": 1,
      "byteOffset": 31584,
      "componentType": 5126,
      "count": 1248,
      "max": [
        1.8410799503326416,
        1.8410799503326416,
        8.827190399169922
      ],
      "min": [
        -1.8410799503326416,
        -1.8410799503326416,
        -1.975059986114502
      ],
      "type": "VEC3"
    },
    {
      "bufferView": 1,
      "byteOffset": 46560,
      "componentType": 5126,
      "count": 1248,
      "max": [
        1.0,
        1.0,
        0.9956211447715759
      ],
      "min": [
        -1.0,
        -1.0,
        -0.6857172250747681
      ],
      "type": "VEC3"
    },
    {
      "bufferView": 0,
      "byteOffset": 30192,
      "componentType": 5125,
      "count": 6132,
      "type": "SCALAR"
    },
    {
      "bufferView": 1,
      "byteOffset": 61536,
      "componentType": 5126,
      "count": 6404,
      "max": [
        1.1260299682617188,
        1.1018699407577515,
        11.129599571228027
      ],
      "min": [
        -1.1305899620056152,
        -1.0852199792861938,
        -2.3665499687194824
      ],
      "type": "VEC3"
    },
    {
      "bufferView": 1,
      "byteOffset": 138384,
      "componentType": 5126,
      "count": 6404,
      "max": [
        1.0,
        1.0,
        1.0
      ],
      "min": [
        -1.0,
        -1.0,
        -1.0
      ],
      "type": "VEC3"
    },
    {
      "bufferView": 0,
      "byteOffset": 54720,
      "componentType": 5125,
      "count": 32451,
      "type": "SCALAR"
    }
  ],
  "asset": {
    "extras": {
      "author": "martn00 (https://sketchfab.com/martn00)",
      "license": "CC-BY-4.0 (http://creativecommons.org/licenses/by/4.0/)",
      "source": "https://sketchfab.com/3d-models/light-bulb-9ef4c782e9074e79b433ae55458bc2af",
      "title": "Light Bulb"
    },
    "generator": "Sketchfab-12.66.0",
    "version": "2.0"
  },
  "bufferViews": [
    {
      "buffer": 0,
      "byteLength": 184524,
      "name": "floatBufferViews",
      "target": 34963
    },
    {
      "buffer": 0,
      "byteLength": 215232,
      "byteOffset": 184524,
      "byteStride": 12,
      "name": "floatBufferViews",
      "target": 34962
    }
  ],
  "buffers": [
    {
      "byteLength": 399756,
      "uri": "scene.bin"
    }
  ],
  "extensionsRequired": [
    "KHR_materials_pbrSpecularGlossiness"
  ],
  "extensionsUsed": [
    "KHR_materials_pbrSpecularGlossiness"
  ],
  "materials": [
    {
      "doubleSided": true,
      "extensions": {
        "KHR_materials_pbrSpecularGlossiness": {
          "diffuseFactor": [
            0.5,
            0.5,
            0.5,
            1.0
          ],
          "glossinessFactor": 0.59,
          "specularFactor": [
            1.0,
            1.0,
            1.0
          ]
        }
      },
      "name": "Material.001"
    },
    {
      "alphaMode": "BLEND",
      "doubleSided": true,
      "extensions": {
        "KHR_materials_pbrSpecularGlossiness": {
          "diffuseFactor": [
            0.5,
            0.5,
            0.5,
            0.35881607623205386
          ],
          "glossinessFactor": 0.8,
          "specularFactor": [
            1.0,
            1.0,
            1.0
          ]
        }
      },
      "name": "Material.003"
    },
    {
      "doubleSided": true,
      "emissiveFactor": [
        0.0800000011920929,
        0.06255477070808411,
        0.018864087760448456
      ],
      "extensions": {
        "KHR_materials_pbrSpecularGlossiness": {
          "diffuseFactor": [
            0.5,
            0.5,
            0.5,
            1.0
          ],
          "glossinessFactor": 0.8,
          "specularFactor": [
            1.0,
            1.0,
            1.0
          ]
        }
      },
      "name": "Material"
    }
  ],
  "meshes": [
    {
      "name": "Cylinder_0",
      "primitives": [
        {
          "attributes": {
            "NORMAL": 1,
            "POSITION": 0
          },
          "indices": 2,
          "material": 2,
          "mode": 4
        }
      ]
    },
    {
      "name": "Cylinder.001_0",
      "primitives": [
        {
          "attributes": {
            "NORMAL": 4,
            "POSITION": 3
          },
          "indices": 5,
          "material": 1,
          "mode": 4
        }
      ]
    },
    {
      "name": "Cylinder.002_0",
      "primitives": [
        {
          "attributes": {
            "NORMAL": 7,
            "POSITION": 6
          },
          "indices": 8,
          "material": 0,
          "mode": 4
        }
      ]
    }
  ],
  "nodes": [
    {
      "children": [
        1
      ],
      "matrix": [
        1.0,
        0.0,
        0.0,
        0.0,
        0.0,
        2.220446049250313e-16,
        -1.0,
        0.0,
        0.0,
        1.0,
        2.220446049250313e-16,
        0.0,
        0.0,
        0.0,
        0.0,
        1.0
      ],
      "name": "Sketchfab_model"
    },
    {
      "children": [
        2,
        4,
        6
      ],
      "name": "Root"
    },
    {
      "children": [
        3
      ],
      "matrix": [
        0.6929000000000002,
        0.0,
        0.0,
        0.0,
        0.0,
        0.6929000000000002,
        0.0,
        0.0,
        0.0,
        0.0,
        0.30995000000000006,
        0.0,
        0.0,
        0.0,
        -2.07735,
        1.0
      ],
      "name": "Cylinder"
    },
    {
      "mesh": 0,
      "name": "Cylinder_0"
    },
    {
      "children": [
        5
      ],
      "matrix": [
        0.94145,
        0.0,
        0.0,
        0.0,
        0.0,
        0.94145,
        0.0,
        0.0,
        0.0,
        0.0,
        0.41036000000000006,
        0.0,
        0.003030000000000001,
        0.005890000000000001,
        -0.6478700000000002,
        1.0
      ],
      "name": "Cylinder.001"
    },
    {
      "mesh": 1,
      "name": "Cylinder.001_0"
    },
    {
      "children": [
        7
      ],
      "matrix": [
        0.6929000000000002,
        0.0,
        0.0,
        0.0,
        0.0,
        0.6929000000000002,
        0.0,
        0.0,
        0.0,
        0.0,
        0.30995000000000006,
        0.0,
        0.0,
        0.0,
        -2.07735,
        1.0
      ],
      "name": "Cylinder.002"
    },
    {
      "mesh": 2,
      "name": "Cylinder.002_0"
    }
  ],
  "scene": 0,
  "scenes": [
    {
      "name": "Sketchfab_Scene",
      "nodes": [
        0
      ]
    }
  ]
}
